# xmcd CD database file
#
# Track frame offsets:
#	180
#	18548
#	39664
#	57040
#	78778
#	97920
#	120071
#	139746
#	161189
#	181415
#	200587
#	217138
#	240094
#
# Disc length: 3488 seconds
#
# Revision: 0
# Processed by: cddbd v1.5.2PL0 Copyright (c) Steve Scherf et al.
# Submitted via: CDex 1.70beta2
#
DISCID=a30d9e0d
DTITLE=VARIOS ARTISTAS - MERENGUES A TODO METRO
DYEAR=1996
DGENRE=Merengue
TTITLE0=LA CHICA GOMELA (CLUB MIX) - LOS TUPAMAROS
TTITLE1=ESTO ES PA' HOMBRE - GRUPO MIO
TTITLE2=AMIGA MIA - LOS OCHO DE COLOMBIA
TTITLE3=CACHAMBA GRUPO CACHAMBA
TTITLE4=LA MORENA - KV 33
TTITLE5=EL VENAO - GALILEO Y SU BANDA
TTITLE6=COME ON BABY - BANDA LA BOCANA
TTITLE7=LA HORA DE BAILAR - KV 33
TTITLE8=GOLPES EN EL CORAZON
TTITLE9=EL BRUJO FAMOSO - GRUPO BAZOOKA
TTITLE10=VEN QUE TE QUIERO ENAMORAR - CARAMELO CALIENTE
TTITLE11=CHICA SEXI - KV 33
TTITLE12=LA MORENA - YO'FRESH
EXTD=YEAR: 1996
EXTT0=
EXTT1=
EXTT2=
EXTT3=
EXTT4=
EXTT5=
EXTT6=
EXTT7=
EXTT8=
EXTT9=
EXTT10=
EXTT11=
EXTT12=
PLAYORDER=
